<svg version="1.1" viewBox="0.0 0.0 631.8110236220473 160.5275590551181" fill="none" stroke="none" stroke-linecap="square" stroke-miterlimit="10" xmlns:xlink="http://www.w3.org/1999/xlink" xmlns="http://www.w3.org/2000/svg"><clipPath id="p.0"><path d="m0 0l631.81104 0l0 160.52756l-631.81104 0l0 -160.52756z" clip-rule="nonzero"/></clipPath><g clip-path="url(#p.0)"><path fill="#000000" fill-opacity="0.0" d="m0 0l631.81104 0l0 160.52756l-631.81104 0z" fill-rule="evenodd"/><path fill="#f3f3f3" d="m81.56431 41.845146l469.98428 0l0 -38.80315l77.60626 77.6063l-77.60626 77.6063l0 -38.803146l-469.98428 0z" fill-rule="evenodd"/><path stroke="#000000" stroke-width="1.0" stroke-linejoin="round" stroke-linecap="butt" d="m81.56431 41.845146l469.98428 0l0 -38.80315l77.60626 77.6063l-77.60626 77.6063l0 -38.803146l-469.98428 0z" fill-rule="evenodd"/><path fill="#cfe2f3" d="m10.286089 59.71937l0 0c0 -5.8273735 4.724019 -10.551392 10.551392 -10.551392l130.2988 0c2.7984009 0 5.482193 1.11166 7.4609528 3.0904312c1.978775 1.9787674 3.0904388 4.6625557 3.0904388 7.4609604l0 42.204304c0 5.8273697 -4.7240295 10.551392 -10.551392 10.551392l-130.2988 0c-5.8273726 0 -10.551392 -4.724022 -10.551392 -10.551392z" fill-rule="evenodd"/><path stroke="#000000" stroke-width="1.0" stroke-linejoin="round" stroke-linecap="butt" d="m10.286089 59.71937l0 0c0 -5.8273735 4.724019 -10.551392 10.551392 -10.551392l130.2988 0c2.7984009 0 5.482193 1.11166 7.4609528 3.0904312c1.978775 1.9787674 3.0904388 4.6625557 3.0904388 7.4609604l0 42.204304c0 5.8273697 -4.7240295 10.551392 -10.551392 10.551392l-130.2988 0c-5.8273726 0 -10.551392 -4.724022 -10.551392 -10.551392z" fill-rule="evenodd"/><path fill="#000000" d="m45.29808 81.67902q0 1.53125 -0.390625 2.671875q-0.390625 1.140625 -1.140625 1.890625q-0.75 0.75 -1.84375 1.125q-1.09375 0.375 -2.609375 0.375l-2.484375 0q-0.21875 0 -0.40625 -0.140625q-0.1875 -0.140625 -0.1875 -0.5l0 -10.515625q0 -0.34375 0.1875 -0.484375q0.1875 -0.140625 0.40625 -0.140625l2.65625 0q1.53125 0 2.59375 0.390625q1.0625 0.390625 1.765625 1.140625q0.71875 0.734375 1.078125 1.796875q0.375 1.0625 0.375 2.390625zm-1.640625 0.0625q0 -0.953125 -0.234375 -1.78125q-0.234375 -0.828125 -0.75 -1.421875q-0.5 -0.609375 -1.28125 -0.9375q-0.765625 -0.34375 -1.984375 -0.34375l-1.59375 0l0 9.171875l1.609375 0q1.125 0 1.890625 -0.28125q0.78125 -0.28125 1.296875 -0.859375q0.53125 -0.59375 0.78125 -1.46875q0.265625 -0.875 0.265625 -2.078125zm10.884216 1.3125q0 0.359375 -0.1875 0.515625q-0.171875 0.140625 -0.390625 0.140625l-5.375 0q0 0.6875 0.125 1.234375q0.140625 0.546875 0.453125 0.9375q0.328125 0.390625 0.828125 0.609375q0.515625 0.203125 1.25 0.203125q0.59375 0 1.046875 -0.09375q0.453125 -0.09375 0.78125 -0.203125q0.34375 -0.125 0.546875 -0.21875q0.21875 -0.109375 0.328125 -0.109375q0.0625 0 0.109375 0.03125q0.0625 0.03125 0.078125 0.109375q0.03125 0.0625 0.046875 0.171875q0.015625 0.109375 0.015625 0.28125q0 0.109375 -0.015625 0.203125q0 0.078125 -0.015625 0.15625q-0.015625 0.0625 -0.046875 0.125q-0.03125 0.046875 -0.09375 0.09375q-0.046875 0.046875 -0.296875 0.171875q-0.234375 0.109375 -0.625 0.21875q-0.390625 0.109375 -0.90625 0.1875q-0.515625 0.09375 -1.09375 0.09375q-1.015625 0 -1.78125 -0.28125q-0.765625 -0.28125 -1.28125 -0.828125q-0.515625 -0.5625 -0.78125 -1.390625q-0.265625 -0.84375 -0.265625 -1.96875q0 -1.046875 0.265625 -1.890625q0.28125 -0.84375 0.796875 -1.421875q0.515625 -0.59375 1.234375 -0.90625q0.734375 -0.328125 1.640625 -0.328125q0.96875 0 1.640625 0.3125q0.6875 0.3125 1.125 0.84375q0.4375 0.515625 0.640625 1.234375q0.203125 0.703125 0.203125 1.5l0 0.265625zm-1.515625 -0.4375q0.03125 -1.1875 -0.53125 -1.859375q-0.546875 -0.671875 -1.625 -0.671875q-0.5625 0 -0.984375 0.21875q-0.40625 0.203125 -0.6875 0.546875q-0.28125 0.34375 -0.4375 0.8125q-0.15625 0.453125 -0.171875 0.953125l4.4375 0zm10.5169525 -3.3125q0 0.03125 0 0.078125q0 0.03125 -0.015625 0.078125q0 0.046875 -0.015625 0.109375q-0.015625 0.046875 -0.03125 0.109375l-2.796875 7.796875q-0.046875 0.09375 -0.109375 0.15625q-0.046875 0.0625 -0.171875 0.109375q-0.109375 0.03125 -0.296875 0.03125q-0.1875 0.015625 -0.453125 0.015625q-0.28125 0 -0.46875 -0.015625q-0.171875 -0.015625 -0.28125 -0.046875q-0.109375 -0.03125 -0.1875 -0.09375q-0.0625 -0.078125 -0.09375 -0.15625l-2.78125 -7.796875q-0.046875 -0.109375 -0.078125 -0.1875q-0.015625 -0.078125 -0.015625 -0.125q0 -0.046875 0 -0.0625q0 -0.078125 0.03125 -0.125q0.03125 -0.0625 0.125 -0.09375q0.09375 -0.03125 0.234375 -0.03125q0.140625 -0.015625 0.34375 -0.015625q0.265625 0 0.421875 0.015625q0.15625 0 0.234375 0.046875q0.09375 0.03125 0.140625 0.09375q0.046875 0.046875 0.078125 0.125l2.3125 6.765625l0.03125 0.109375l0.03125 -0.109375l2.296875 -6.765625q0.015625 -0.078125 0.0625 -0.125q0.046875 -0.0625 0.125 -0.09375q0.09375 -0.046875 0.234375 -0.046875q0.15625 -0.015625 0.40625 -0.015625q0.203125 0 0.328125 0.015625q0.140625 0 0.21875 0.03125q0.078125 0.03125 0.109375 0.09375q0.03125 0.046875 0.03125 0.125zm8.707535 3.75q0 0.359375 -0.1875 0.515625q-0.171875 0.140625 -0.390625 0.140625l-5.375 0q0 0.6875 0.125 1.234375q0.140625 0.546875 0.453125 0.9375q0.328125 0.390625 0.828125 0.609375q0.515625 0.203125 1.25 0.203125q0.59375 0 1.046875 -0.09375q0.453125 -0.09375 0.78125 -0.203125q0.34375 -0.125 0.546875 -0.21875q0.21875 -0.109375 0.328125 -0.109375q0.0625 0 0.109375 0.03125q0.0625 0.03125 0.078125 0.109375q0.03125 0.0625 0.046875 0.171875q0.015625 0.109375 0.015625 0.28125q0 0.109375 -0.015625 0.203125q0 0.078125 -0.015625 0.15625q-0.015625 0.0625 -0.046875 0.125q-0.03125 0.046875 -0.09375 0.09375q-0.046875 0.046875 -0.296875 0.171875q-0.234375 0.109375 -0.625 0.21875q-0.390625 0.109375 -0.90625 0.1875q-0.515625 0.09375 -1.09375 0.09375q-1.015625 0 -1.78125 -0.28125q-0.765625 -0.28125 -1.28125 -0.828125q-0.515625 -0.5625 -0.78125 -1.390625q-0.265625 -0.84375 -0.265625 -1.96875q0 -1.046875 0.265625 -1.890625q0.28125 -0.84375 0.796875 -1.421875q0.515625 -0.59375 1.234375 -0.90625q0.734375 -0.328125 1.640625 -0.328125q0.96875 0 1.640625 0.3125q0.6875 0.3125 1.125 0.84375q0.4375 0.515625 0.640625 1.234375q0.203125 0.703125 0.203125 1.5l0 0.265625zm-1.515625 -0.4375q0.03125 -1.1875 -0.53125 -1.859375q-0.546875 -0.671875 -1.625 -0.671875q-0.5625 0 -0.984375 0.21875q-0.40625 0.203125 -0.6875 0.546875q-0.28125 0.34375 -0.4375 0.8125q-0.15625 0.453125 -0.171875 0.953125l4.4375 0zm5.2982025 4.890625q0 0.078125 -0.03125 0.140625q-0.03125 0.046875 -0.125 0.078125q-0.078125 0.03125 -0.21875 0.046875q-0.140625 0.015625 -0.375 0.015625q-0.21875 0 -0.375 -0.015625q-0.140625 -0.015625 -0.234375 -0.046875q-0.078125 -0.03125 -0.109375 -0.078125q-0.03125 -0.0625 -0.03125 -0.140625l0 -12.15625q0 -0.078125 0.03125 -0.125q0.03125 -0.0625 0.109375 -0.09375q0.09375 -0.046875 0.234375 -0.0625q0.15625 -0.015625 0.375 -0.015625q0.234375 0 0.375 0.015625q0.140625 0.015625 0.21875 0.0625q0.09375 0.03125 0.125 0.09375q0.03125 0.046875 0.03125 0.125l0 12.15625zm10.406464 -4.1875q0 1.0 -0.265625 1.84375q-0.265625 0.84375 -0.796875 1.453125q-0.515625 0.609375 -1.3125 0.953125q-0.78125 0.34375 -1.8125 0.34375q-1.015625 0 -1.765625 -0.296875q-0.75 -0.296875 -1.25 -0.875q-0.5 -0.578125 -0.75 -1.390625q-0.25 -0.828125 -0.25 -1.859375q0 -1.0 0.265625 -1.84375q0.265625 -0.84375 0.78125 -1.453125q0.53125 -0.609375 1.3125 -0.953125q0.78125 -0.34375 1.828125 -0.34375q1.015625 0 1.765625 0.3125q0.75 0.296875 1.25 0.875q0.5 0.5625 0.75 1.390625q0.25 0.8125 0.25 1.84375zm-1.578125 0.109375q0 -0.671875 -0.125 -1.265625q-0.125 -0.59375 -0.40625 -1.03125q-0.28125 -0.453125 -0.765625 -0.703125q-0.484375 -0.265625 -1.203125 -0.265625q-0.671875 0 -1.15625 0.234375q-0.46875 0.234375 -0.78125 0.671875q-0.296875 0.4375 -0.453125 1.03125q-0.15625 0.578125 -0.15625 1.28125q0 0.671875 0.125 1.265625q0.125 0.59375 0.40625 1.046875q0.296875 0.4375 0.78125 0.703125q0.484375 0.25 1.203125 0.25q0.65625 0 1.125 -0.234375q0.484375 -0.234375 0.796875 -0.65625q0.3125 -0.4375 0.453125 -1.03125q0.15625 -0.59375 0.15625 -1.296875zm11.338257 -0.140625q0 1.078125 -0.234375 1.9375q-0.234375 0.84375 -0.6875 1.453125q-0.453125 0.59375 -1.125 0.921875q-0.65625 0.3125 -1.5 0.3125q-0.375 0 -0.6875 -0.078125q-0.296875 -0.0625 -0.59375 -0.21875q-0.296875 -0.15625 -0.59375 -0.390625q-0.296875 -0.234375 -0.625 -0.5625l0 4.109375q0 0.0625 -0.03125 0.109375q-0.03125 0.0625 -0.125 0.09375q-0.078125 0.046875 -0.21875 0.0625q-0.140625 0.015625 -0.375 0.015625q-0.21875 0 -0.375 -0.015625q-0.140625 -0.015625 -0.234375 -0.0625q-0.078125 -0.03125 -0.109375 -0.09375q-0.03125 -0.046875 -0.03125 -0.109375l0 -11.453125q0 -0.09375 0.03125 -0.140625q0.03125 -0.046875 0.109375 -0.078125q0.078125 -0.046875 0.203125 -0.046875q0.140625 -0.015625 0.3125 -0.015625q0.1875 0 0.3125 0.015625q0.125 0 0.203125 0.046875q0.09375 0.03125 0.125 0.078125q0.03125 0.046875 0.03125 0.140625l0 1.09375q0.375 -0.375 0.71875 -0.65625q0.34375 -0.28125 0.6875 -0.46875q0.359375 -0.1875 0.71875 -0.28125q0.375 -0.109375 0.78125 -0.109375q0.890625 0 1.515625 0.359375q0.640625 0.34375 1.03125 0.953125q0.40625 0.59375 0.578125 1.390625q0.1875 0.796875 0.1875 1.6875zm-1.59375 0.171875q0 -0.625 -0.09375 -1.203125q-0.09375 -0.59375 -0.328125 -1.046875q-0.21875 -0.46875 -0.625 -0.734375q-0.390625 -0.28125 -0.96875 -0.28125q-0.296875 0 -0.578125 0.09375q-0.28125 0.078125 -0.578125 0.265625q-0.28125 0.1875 -0.609375 0.5q-0.3125 0.296875 -0.671875 0.75l0 3.265625q0.625 0.75 1.171875 1.15625q0.5625 0.390625 1.171875 0.390625q0.5625 0 0.96875 -0.265625q0.40625 -0.28125 0.65625 -0.734375q0.25 -0.453125 0.359375 -1.015625q0.125 -0.5625 0.125 -1.140625zm16.020569 4.046875q0 0.078125 -0.046875 0.140625q-0.03125 0.046875 -0.125 0.078125q-0.078125 0.03125 -0.21875 0.046875q-0.140625 0.015625 -0.359375 0.015625q-0.234375 0 -0.390625 -0.015625q-0.140625 -0.015625 -0.234375 -0.046875q-0.078125 -0.03125 -0.109375 -0.078125q-0.03125 -0.0625 -0.03125 -0.140625l0 -4.96875q0 -0.53125 -0.09375 -0.953125q-0.09375 -0.4375 -0.296875 -0.734375q-0.203125 -0.3125 -0.515625 -0.46875q-0.296875 -0.171875 -0.71875 -0.171875q-0.515625 0 -1.046875 0.40625q-0.515625 0.390625 -1.15625 1.171875l0 5.71875q0 0.078125 -0.03125 0.140625q-0.03125 0.046875 -0.125 0.078125q-0.078125 0.03125 -0.234375 0.046875q-0.140625 0.015625 -0.359375 0.015625q-0.203125 0 -0.359375 -0.015625q-0.15625 -0.015625 -0.25 -0.046875q-0.078125 -0.03125 -0.109375 -0.078125q-0.03125 -0.0625 -0.03125 -0.140625l0 -4.96875q0 -0.53125 -0.109375 -0.953125q-0.09375 -0.4375 -0.296875 -0.734375q-0.1875 -0.3125 -0.5 -0.46875q-0.296875 -0.171875 -0.71875 -0.171875q-0.515625 0 -1.046875 0.40625q-0.53125 0.390625 -1.15625 1.171875l0 5.71875q0 0.078125 -0.03125 0.140625q-0.03125 0.046875 -0.125 0.078125q-0.078125 0.03125 -0.21875 0.046875q-0.140625 0.015625 -0.375 0.015625q-0.21875 0 -0.375 -0.015625q-0.140625 -0.015625 -0.234375 -0.046875q-0.078125 -0.03125 -0.109375 -0.078125q-0.03125 -0.0625 -0.03125 -0.140625l0 -8.1875q0 -0.078125 0.03125 -0.125q0.03125 -0.046875 0.109375 -0.09375q0.078125 -0.046875 0.203125 -0.046875q0.140625 -0.015625 0.34375 -0.015625q0.203125 0 0.328125 0.015625q0.140625 0 0.203125 0.046875q0.078125 0.046875 0.109375 0.09375q0.03125 0.046875 0.03125 0.125l0 1.078125q0.6875 -0.765625 1.34375 -1.125q0.65625 -0.375 1.3125 -0.375q0.515625 0 0.921875 0.125q0.40625 0.125 0.703125 0.34375q0.3125 0.203125 0.53125 0.5q0.21875 0.296875 0.375 0.65625q0.40625 -0.4375 0.765625 -0.75q0.375 -0.3125 0.71875 -0.5q0.34375 -0.1875 0.65625 -0.28125q0.328125 -0.09375 0.65625 -0.09375q0.796875 0 1.328125 0.28125q0.546875 0.28125 0.875 0.75q0.328125 0.46875 0.46875 1.09375q0.15625 0.609375 0.15625 1.3125l0 5.171875zm9.731262 -4.453125q0 0.359375 -0.1875 0.515625q-0.171875 0.140625 -0.390625 0.140625l-5.375 0q0 0.6875 0.125 1.234375q0.140625 0.546875 0.453125 0.9375q0.328125 0.390625 0.828125 0.609375q0.515625 0.203125 1.25 0.203125q0.59375 0 1.046875 -0.09375q0.453125 -0.09375 0.78125 -0.203125q0.34375 -0.125 0.546875 -0.21875q0.21875 -0.109375 0.328125 -0.109375q0.0625 0 0.109375 0.03125q0.0625 0.03125 0.078125 0.109375q0.03125 0.0625 0.046875 0.171875q0.015625 0.109375 0.015625 0.28125q0 0.109375 -0.015625 0.203125q0 0.078125 -0.015625 0.15625q-0.015625 0.0625 -0.046875 0.125q-0.03125 0.046875 -0.09375 0.09375q-0.046875 0.046875 -0.296875 0.171875q-0.234375 0.109375 -0.625 0.21875q-0.390625 0.109375 -0.90625 0.1875q-0.515625 0.09375 -1.09375 0.09375q-1.015625 0 -1.78125 -0.28125q-0.765625 -0.28125 -1.28125 -0.828125q-0.515625 -0.5625 -0.78125 -1.390625q-0.265625 -0.84375 -0.265625 -1.96875q0 -1.046875 0.265625 -1.890625q0.28125 -0.84375 0.796875 -1.421875q0.515625 -0.59375 1.234375 -0.90625q0.734375 -0.328125 1.640625 -0.328125q0.96875 0 1.640625 0.3125q0.6875 0.3125 1.125 0.84375q0.4375 0.515625 0.640625 1.234375q0.203125 0.703125 0.203125 1.5l0 0.265625zm-1.515625 -0.4375q0.03125 -1.1875 -0.53125 -1.859375q-0.546875 -0.671875 -1.625 -0.671875q-0.5625 0 -0.984375 0.21875q-0.40625 0.203125 -0.6875 0.546875q-0.28125 0.34375 -0.4375 0.8125q-0.15625 0.453125 -0.171875 0.953125l4.4375 0zm10.8607025 4.890625q0 0.078125 -0.046875 0.140625q-0.03125 0.046875 -0.109375 0.078125q-0.078125 0.03125 -0.234375 0.046875q-0.140625 0.015625 -0.359375 0.015625q-0.21875 0 -0.375 -0.015625q-0.140625 -0.015625 -0.234375 -0.046875q-0.078125 -0.03125 -0.109375 -0.078125q-0.03125 -0.0625 -0.03125 -0.140625l0 -4.796875q0 -0.703125 -0.109375 -1.125q-0.109375 -0.4375 -0.328125 -0.734375q-0.203125 -0.3125 -0.546875 -0.46875q-0.328125 -0.171875 -0.765625 -0.171875q-0.5625 0 -1.125 0.40625q-0.5625 0.390625 -1.1875 1.171875l0 5.71875q0 0.078125 -0.03125 0.140625q-0.03125 0.046875 -0.125 0.078125q-0.078125 0.03125 -0.21875 0.046875q-0.140625 0.015625 -0.375 0.015625q-0.21875 0 -0.375 -0.015625q-0.140625 -0.015625 -0.234375 -0.046875q-0.078125 -0.03125 -0.109375 -0.078125q-0.03125 -0.0625 -0.03125 -0.140625l0 -8.1875q0 -0.078125 0.03125 -0.125q0.03125 -0.046875 0.109375 -0.09375q0.078125 -0.046875 0.203125 -0.046875q0.140625 -0.015625 0.34375 -0.015625q0.203125 0 0.328125 0.015625q0.140625 0 0.203125 0.046875q0.078125 0.046875 0.109375 0.09375q0.03125 0.046875 0.03125 0.125l0 1.078125q0.6875 -0.765625 1.375 -1.125q0.6875 -0.375 1.390625 -0.375q0.828125 0 1.375 0.28125q0.5625 0.28125 0.90625 0.75q0.359375 0.46875 0.5 1.09375q0.15625 0.609375 0.15625 1.484375l0 5.0zm7.004944 -0.59375q0 0.265625 -0.046875 0.421875q-0.03125 0.15625 -0.109375 0.234375q-0.0625 0.0625 -0.21875 0.125q-0.140625 0.0625 -0.328125 0.09375q-0.1875 0.046875 -0.390625 0.078125q-0.203125 0.03125 -0.421875 0.03125q-0.640625 0 -1.09375 -0.171875q-0.453125 -0.171875 -0.75 -0.5q-0.28125 -0.34375 -0.421875 -0.859375q-0.125 -0.53125 -0.125 -1.25l0 -4.796875l-1.15625 0q-0.125 0 -0.21875 -0.140625q-0.078125 -0.140625 -0.078125 -0.46875q0 -0.171875 0.015625 -0.28125q0.03125 -0.125 0.0625 -0.203125q0.046875 -0.078125 0.09375 -0.109375q0.0625 -0.03125 0.140625 -0.03125l1.140625 0l0 -1.953125q0 -0.0625 0.03125 -0.109375q0.03125 -0.0625 0.109375 -0.109375q0.09375 -0.046875 0.234375 -0.0625q0.15625 -0.015625 0.375 -0.015625q0.21875 0 0.359375 0.015625q0.15625 0.015625 0.234375 0.0625q0.078125 0.046875 0.109375 0.109375q0.046875 0.046875 0.046875 0.109375l0 1.953125l2.109375 0q0.0625 0 0.109375 0.03125q0.0625 0.03125 0.109375 0.109375q0.046875 0.078125 0.0625 0.203125q0.015625 0.109375 0.015625 0.28125q0 0.328125 -0.078125 0.46875q-0.078125 0.140625 -0.21875 0.140625l-2.109375 0l0 4.578125q0 0.84375 0.25 1.28125q0.25 0.4375 0.90625 0.4375q0.203125 0 0.359375 -0.046875q0.171875 -0.046875 0.296875 -0.078125q0.125 -0.046875 0.21875 -0.09375q0.09375 -0.046875 0.171875 -0.046875q0.046875 0 0.078125 0.03125q0.046875 0.015625 0.0625 0.078125q0.03125 0.0625 0.046875 0.171875q0.015625 0.109375 0.015625 0.28125z" fill-rule="nonzero"/><path fill="#cfe2f3" d="m170.55905 58.89737l0 0c0 -5.8273735 4.7240295 -10.551395 10.551392 -10.551395l115.59012 0c2.7984314 0 5.4822083 1.1116638 7.460968 3.0904312c1.9787903 1.9787712 3.090454 4.6625595 3.090454 7.460964l0 42.2043c0 5.8273773 -4.7240295 10.551392 -10.551422 10.551392l-115.59012 0c-5.827362 0 -10.551392 -4.7240143 -10.551392 -10.551392z" fill-rule="evenodd"/><path stroke="#000000" stroke-width="1.0" stroke-linejoin="round" stroke-linecap="butt" d="m170.55905 58.89737l0 0c0 -5.8273735 4.7240295 -10.551395 10.551392 -10.551395l115.59012 0c2.7984314 0 5.4822083 1.1116638 7.460968 3.0904312c1.9787903 1.9787712 3.090454 4.6625595 3.090454 7.460964l0 42.2043c0 5.8273773 -4.7240295 10.551392 -10.551422 10.551392l-115.59012 0c-5.827362 0 -10.551392 -4.7240143 -10.551392 -10.551392z" fill-rule="evenodd"/><path fill="#000000" d="m199.83273 86.68514q0 0.078125 -0.046875 0.140625q-0.03125 0.046875 -0.125 0.078125q-0.09375 0.03125 -0.25 0.046875q-0.140625 0.015625 -0.375 0.015625q-0.21875 0 -0.375 -0.015625q-0.140625 -0.015625 -0.234375 -0.046875q-0.09375 -0.03125 -0.140625 -0.078125q-0.03125 -0.0625 -0.03125 -0.140625l0 -11.3125q0 -0.078125 0.046875 -0.125q0.046875 -0.0625 0.140625 -0.09375q0.09375 -0.03125 0.234375 -0.046875q0.15625 -0.03125 0.359375 -0.03125q0.234375 0 0.375 0.03125q0.15625 0.015625 0.25 0.046875q0.09375 0.03125 0.125 0.09375q0.046875 0.046875 0.046875 0.125l0 11.3125zm10.0130005 0q0 0.078125 -0.046875 0.140625q-0.03125 0.046875 -0.109375 0.078125q-0.078125 0.03125 -0.234375 0.046875q-0.140625 0.015625 -0.359375 0.015625q-0.21875 0 -0.375 -0.015625q-0.140625 -0.015625 -0.234375 -0.046875q-0.078125 -0.03125 -0.109375 -0.078125q-0.03125 -0.0625 -0.03125 -0.140625l0 -4.796875q0 -0.703125 -0.109375 -1.125q-0.109375 -0.4375 -0.328125 -0.734375q-0.203125 -0.3125 -0.546875 -0.46875q-0.328125 -0.171875 -0.765625 -0.171875q-0.5625 0 -1.125 0.40625q-0.5625 0.390625 -1.1875 1.171875l0 5.71875q0 0.078125 -0.03125 0.140625q-0.03125 0.046875 -0.125 0.078125q-0.078125 0.03125 -0.21875 0.046875q-0.140625 0.015625 -0.375 0.015625q-0.21875 0 -0.375 -0.015625q-0.140625 -0.015625 -0.234375 -0.046875q-0.078125 -0.03125 -0.109375 -0.078125q-0.03125 -0.0625 -0.03125 -0.140625l0 -8.1875q0 -0.078125 0.03125 -0.125q0.03125 -0.046875 0.109375 -0.09375q0.078125 -0.046875 0.203125 -0.046875q0.140625 -0.015625 0.34375 -0.015625q0.203125 0 0.328125 0.015625q0.140625 0 0.203125 0.046875q0.078125 0.046875 0.109375 0.09375q0.03125 0.046875 0.03125 0.125l0 1.078125q0.6875 -0.765625 1.375 -1.125q0.6875 -0.375 1.390625 -0.375q0.828125 0 1.375 0.28125q0.5625 0.28125 0.90625 0.75q0.359375 0.46875 0.5 1.09375q0.15625 0.609375 0.15625 1.484375l0 5.0zm7.004944 -0.59375q0 0.265625 -0.046875 0.421875q-0.03125 0.15625 -0.109375 0.234375q-0.0625 0.0625 -0.21875 0.125q-0.140625 0.0625 -0.328125 0.09375q-0.1875 0.046875 -0.390625 0.078125q-0.203125 0.03125 -0.421875 0.03125q-0.640625 0 -1.09375 -0.171875q-0.453125 -0.171875 -0.75 -0.5q-0.28125 -0.34375 -0.421875 -0.859375q-0.125 -0.53125 -0.125 -1.25l0 -4.796875l-1.15625 0q-0.125 0 -0.21875 -0.140625q-0.078125 -0.140625 -0.078125 -0.46875q0 -0.171875 0.015625 -0.28125q0.03125 -0.125 0.0625 -0.203125q0.046875 -0.078125 0.09375 -0.109375q0.0625 -0.03125 0.140625 -0.03125l1.140625 0l0 -1.953125q0 -0.0625 0.03125 -0.109375q0.03125 -0.0625 0.109375 -0.109375q0.09375 -0.046875 0.234375 -0.0625q0.15625 -0.015625 0.375 -0.015625q0.21875 0 0.359375 0.015625q0.15625 0.015625 0.234375 0.0625q0.078125 0.046875 0.109375 0.109375q0.046875 0.046875 0.046875 0.109375l0 1.953125l2.109375 0q0.0625 0 0.109375 0.03125q0.0625 0.03125 0.109375 0.109375q0.046875 0.078125 0.0625 0.203125q0.015625 0.109375 0.015625 0.28125q0 0.328125 -0.078125 0.46875q-0.078125 0.140625 -0.21875 0.140625l-2.109375 0l0 4.578125q0 0.84375 0.25 1.28125q0.25 0.4375 0.90625 0.4375q0.203125 0 0.359375 -0.046875q0.171875 -0.046875 0.296875 -0.078125q0.125 -0.046875 0.21875 -0.09375q0.09375 -0.046875 0.171875 -0.046875q0.046875 0 0.078125 0.03125q0.046875 0.015625 0.0625 0.078125q0.03125 0.0625 0.046875 0.171875q0.015625 0.109375 0.015625 0.28125zm8.98349 -3.859375q0 0.359375 -0.1875 0.515625q-0.171875 0.140625 -0.390625 0.140625l-5.375 0q0 0.6875 0.125 1.234375q0.140625 0.546875 0.453125 0.9375q0.328125 0.390625 0.828125 0.609375q0.515625 0.203125 1.25 0.203125q0.59375 0 1.046875 -0.09375q0.453125 -0.09375 0.78125 -0.203125q0.34375 -0.125 0.546875 -0.21875q0.21875 -0.109375 0.328125 -0.109375q0.0625 0 0.109375 0.03125q0.0625 0.03125 0.078125 0.109375q0.03125 0.0625 0.046875 0.171875q0.015625 0.109375 0.015625 0.28125q0 0.109375 -0.015625 0.203125q0 0.078125 -0.015625 0.15625q-0.015625 0.0625 -0.046875 0.125q-0.03125 0.046875 -0.09375 0.09375q-0.046875 0.046875 -0.296875 0.171875q-0.234375 0.109375 -0.625 0.21875q-0.390625 0.109375 -0.90625 0.1875q-0.515625 0.09375 -1.09375 0.09375q-1.015625 0 -1.78125 -0.28125q-0.765625 -0.28125 -1.28125 -0.828125q-0.515625 -0.5625 -0.78125 -1.390625q-0.265625 -0.84375 -0.265625 -1.96875q0 -1.046875 0.265625 -1.890625q0.28125 -0.84375 0.796875 -1.421875q0.515625 -0.59375 1.234375 -0.90625q0.734375 -0.328125 1.640625 -0.328125q0.96875 0 1.640625 0.3125q0.6875 0.3125 1.125 0.84375q0.4375 0.515625 0.640625 1.234375q0.203125 0.703125 0.203125 1.5l0 0.265625zm-1.515625 -0.4375q0.03125 -1.1875 -0.53125 -1.859375q-0.546875 -0.671875 -1.625 -0.671875q-0.5625 0 -0.984375 0.21875q-0.40625 0.203125 -0.6875 0.546875q-0.28125 0.34375 -0.4375 0.8125q-0.15625 0.453125 -0.171875 0.953125l4.4375 0zm10.6575775 -2.921875q0 0.3125 -0.09375 0.453125q-0.078125 0.140625 -0.21875 0.140625l-1.171875 0q0.3125 0.328125 0.4375 0.734375q0.125 0.390625 0.125 0.8125q0 0.71875 -0.234375 1.265625q-0.21875 0.546875 -0.640625 0.921875q-0.421875 0.375 -1.015625 0.578125q-0.578125 0.203125 -1.28125 0.203125q-0.5 0 -0.953125 -0.125q-0.453125 -0.140625 -0.703125 -0.34375q-0.15625 0.15625 -0.265625 0.375q-0.109375 0.203125 -0.109375 0.484375q0 0.3125 0.296875 0.53125q0.296875 0.203125 0.796875 0.21875l2.140625 0.09375q0.609375 0.015625 1.109375 0.171875q0.515625 0.140625 0.890625 0.421875q0.375 0.28125 0.578125 0.6875q0.21875 0.40625 0.21875 0.9375q0 0.5625 -0.25 1.078125q-0.234375 0.515625 -0.71875 0.890625q-0.484375 0.390625 -1.25 0.609375q-0.75 0.234375 -1.78125 0.234375q-0.984375 0 -1.6875 -0.171875q-0.6875 -0.171875 -1.140625 -0.46875q-0.4375 -0.28125 -0.640625 -0.6875q-0.203125 -0.40625 -0.203125 -0.875q0 -0.3125 0.0625 -0.59375q0.078125 -0.28125 0.21875 -0.53125q0.15625 -0.25 0.375 -0.484375q0.234375 -0.234375 0.53125 -0.46875q-0.453125 -0.21875 -0.671875 -0.5625q-0.203125 -0.359375 -0.203125 -0.75q0 -0.5625 0.21875 -1.0q0.234375 -0.4375 0.5625 -0.78125q-0.28125 -0.328125 -0.453125 -0.75q-0.15625 -0.4375 -0.15625 -1.03125q0 -0.703125 0.234375 -1.25q0.25 -0.5625 0.65625 -0.9375q0.421875 -0.390625 1.015625 -0.59375q0.59375 -0.203125 1.28125 -0.203125q0.375 0 0.6875 0.046875q0.328125 0.03125 0.609375 0.109375l2.484375 0q0.15625 0 0.234375 0.15625q0.078125 0.140625 0.078125 0.453125zm-2.359375 2.15625q0 -0.84375 -0.46875 -1.3125q-0.453125 -0.46875 -1.296875 -0.46875q-0.4375 0 -0.765625 0.15625q-0.3125 0.140625 -0.53125 0.390625q-0.21875 0.25 -0.328125 0.59375q-0.09375 0.328125 -0.09375 0.6875q0 0.8125 0.453125 1.28125q0.46875 0.46875 1.296875 0.46875q0.4375 0 0.765625 -0.140625q0.328125 -0.140625 0.546875 -0.390625q0.21875 -0.25 0.3125 -0.578125q0.109375 -0.328125 0.109375 -0.6875zm0.765625 6.484375q0 -0.515625 -0.4375 -0.796875q-0.4375 -0.296875 -1.171875 -0.3125l-2.125 -0.078125q-0.296875 0.234375 -0.484375 0.4375q-0.171875 0.203125 -0.28125 0.390625q-0.109375 0.1875 -0.15625 0.359375q-0.046875 0.1875 -0.046875 0.375q0 0.59375 0.59375 0.890625q0.609375 0.3125 1.6875 0.3125q0.6875 0 1.140625 -0.140625q0.46875 -0.125 0.75 -0.34375q0.28125 -0.21875 0.40625 -0.5q0.125 -0.28125 0.125 -0.59375zm8.312805 -8.484375q0 0.203125 -0.015625 0.34375q0 0.125 -0.03125 0.203125q-0.03125 0.078125 -0.078125 0.125q-0.03125 0.046875 -0.109375 0.046875q-0.0625 0 -0.171875 -0.046875q-0.109375 -0.046875 -0.25 -0.078125q-0.125 -0.046875 -0.296875 -0.078125q-0.15625 -0.046875 -0.34375 -0.046875q-0.21875 0 -0.4375 0.09375q-0.21875 0.09375 -0.46875 0.3125q-0.234375 0.203125 -0.5 0.546875q-0.265625 0.34375 -0.59375 0.84375l0 5.390625q0 0.078125 -0.03125 0.140625q-0.03125 0.046875 -0.125 0.078125q-0.078125 0.03125 -0.21875 0.046875q-0.140625 0.015625 -0.375 0.015625q-0.21875 0 -0.375 -0.015625q-0.140625 -0.015625 -0.234375 -0.046875q-0.078125 -0.03125 -0.109375 -0.078125q-0.03125 -0.0625 -0.03125 -0.140625l0 -8.1875q0 -0.078125 0.03125 -0.125q0.03125 -0.046875 0.109375 -0.09375q0.078125 -0.046875 0.203125 -0.046875q0.140625 -0.015625 0.34375 -0.015625q0.203125 0 0.328125 0.015625q0.140625 0 0.203125 0.046875q0.078125 0.046875 0.109375 0.09375q0.03125 0.046875 0.03125 0.125l0 1.1875q0.34375 -0.484375 0.640625 -0.796875q0.296875 -0.3125 0.546875 -0.484375q0.265625 -0.1875 0.53125 -0.25q0.265625 -0.078125 0.515625 -0.078125q0.125 0 0.265625 0.015625q0.15625 0.015625 0.3125 0.0625q0.171875 0.03125 0.296875 0.078125q0.140625 0.046875 0.1875 0.09375q0.0625 0.046875 0.078125 0.09375q0.03125 0.03125 0.03125 0.09375q0.015625 0.0625 0.015625 0.1875q0.015625 0.125 0.015625 0.328125zm7.879181 7.671875q0 0.109375 -0.078125 0.171875q-0.0625 0.046875 -0.1875 0.0625q-0.125 0.03125 -0.375 0.03125q-0.234375 0 -0.375 -0.03125q-0.140625 -0.015625 -0.203125 -0.0625q-0.0625 -0.0625 -0.0625 -0.171875l0 -0.8125q-0.546875 0.5625 -1.203125 0.890625q-0.65625 0.3125 -1.390625 0.3125q-0.65625 0 -1.1875 -0.171875q-0.515625 -0.15625 -0.890625 -0.46875q-0.359375 -0.328125 -0.5625 -0.796875q-0.203125 -0.46875 -0.203125 -1.0625q0 -0.6875 0.28125 -1.1875q0.28125 -0.515625 0.796875 -0.84375q0.53125 -0.34375 1.296875 -0.515625q0.765625 -0.171875 1.734375 -0.171875l1.125 0l0 -0.640625q0 -0.46875 -0.109375 -0.828125q-0.09375 -0.375 -0.328125 -0.609375q-0.21875 -0.25 -0.578125 -0.359375q-0.34375 -0.125 -0.859375 -0.125q-0.5625 0 -1.0 0.140625q-0.4375 0.125 -0.78125 0.28125q-0.328125 0.15625 -0.546875 0.296875q-0.21875 0.125 -0.328125 0.125q-0.078125 0 -0.140625 -0.03125q-0.046875 -0.046875 -0.09375 -0.109375q-0.03125 -0.078125 -0.0625 -0.1875q-0.015625 -0.125 -0.015625 -0.25q0 -0.234375 0.03125 -0.359375q0.03125 -0.140625 0.15625 -0.25q0.125 -0.125 0.421875 -0.28125q0.3125 -0.171875 0.703125 -0.296875q0.390625 -0.125 0.84375 -0.21875q0.46875 -0.09375 0.953125 -0.09375q0.875 0 1.484375 0.203125q0.625 0.203125 1.0 0.59375q0.390625 0.390625 0.5625 0.96875q0.171875 0.5625 0.171875 1.328125l0 5.53125zm-1.484375 -3.75l-1.28125 0q-0.625 0 -1.078125 0.109375q-0.453125 0.109375 -0.765625 0.3125q-0.296875 0.203125 -0.4375 0.5q-0.140625 0.28125 -0.140625 0.65625q0 0.625 0.40625 1.015625q0.40625 0.375 1.140625 0.375q0.59375 0 1.09375 -0.296875q0.5 -0.3125 1.0625 -0.921875l0 -1.75zm8.514542 3.140625q0 0.265625 -0.046875 0.421875q-0.03125 0.15625 -0.109375 0.234375q-0.0625 0.0625 -0.21875 0.125q-0.140625 0.0625 -0.328125 0.09375q-0.1875 0.046875 -0.390625 0.078125q-0.203125 0.03125 -0.421875 0.03125q-0.640625 0 -1.09375 -0.171875q-0.453125 -0.171875 -0.75 -0.5q-0.28125 -0.34375 -0.421875 -0.859375q-0.125 -0.53125 -0.125 -1.25l0 -4.796875l-1.15625 0q-0.125 0 -0.21875 -0.140625q-0.078125 -0.140625 -0.078125 -0.46875q0 -0.171875 0.015625 -0.28125q0.03125 -0.125 0.0625 -0.203125q0.046875 -0.078125 0.09375 -0.109375q0.0625 -0.03125 0.140625 -0.03125l1.140625 0l0 -1.953125q0 -0.0625 0.03125 -0.109375q0.03125 -0.0625 0.109375 -0.109375q0.09375 -0.046875 0.234375 -0.0625q0.15625 -0.015625 0.375 -0.015625q0.21875 0 0.359375 0.015625q0.15625 0.015625 0.234375 0.0625q0.078125 0.046875 0.109375 0.109375q0.046875 0.046875 0.046875 0.109375l0 1.953125l2.109375 0q0.0625 0 0.109375 0.03125q0.0625 0.03125 0.109375 0.109375q0.046875 0.078125 0.0625 0.203125q0.015625 0.109375 0.015625 0.28125q0 0.328125 -0.078125 0.46875q-0.078125 0.140625 -0.21875 0.140625l-2.109375 0l0 4.578125q0 0.84375 0.25 1.28125q0.25 0.4375 0.90625 0.4375q0.203125 0 0.359375 -0.046875q0.171875 -0.046875 0.296875 -0.078125q0.125 -0.046875 0.21875 -0.09375q0.09375 -0.046875 0.171875 -0.046875q0.046875 0 0.078125 0.03125q0.046875 0.015625 0.0625 0.078125q0.03125 0.0625 0.046875 0.171875q0.015625 0.109375 0.015625 0.28125zm3.48349 0.59375q0 0.078125 -0.03125 0.140625q-0.03125 0.046875 -0.125 0.078125q-0.078125 0.03125 -0.21875 0.046875q-0.140625 0.015625 -0.375 0.015625q-0.21875 0 -0.375 -0.015625q-0.140625 -0.015625 -0.234375 -0.046875q-0.078125 -0.03125 -0.109375 -0.078125q-0.03125 -0.0625 -0.03125 -0.140625l0 -8.1875q0 -0.0625 0.03125 -0.109375q0.03125 -0.0625 0.109375 -0.09375q0.09375 -0.046875 0.234375 -0.0625q0.15625 -0.015625 0.375 -0.015625q0.234375 0 0.375 0.015625q0.140625 0.015625 0.21875 0.0625q0.09375 0.03125 0.125 0.09375q0.03125 0.046875 0.03125 0.109375l0 8.1875zm0.171875 -10.96875q0 0.53125 -0.203125 0.734375q-0.1875 0.1875 -0.734375 0.1875q-0.515625 0 -0.71875 -0.1875q-0.1875 -0.1875 -0.1875 -0.703125q0 -0.53125 0.1875 -0.71875q0.203125 -0.203125 0.75 -0.203125q0.515625 0 0.703125 0.1875q0.203125 0.1875 0.203125 0.703125zm10.234589 6.78125q0 1.0 -0.265625 1.84375q-0.265625 0.84375 -0.796875 1.453125q-0.515625 0.609375 -1.3125 0.953125q-0.78125 0.34375 -1.8125 0.34375q-1.015625 0 -1.765625 -0.296875q-0.75 -0.296875 -1.25 -0.875q-0.5 -0.578125 -0.75 -1.390625q-0.25 -0.828125 -0.25 -1.859375q0 -1.0 0.265625 -1.84375q0.265625 -0.84375 0.78125 -1.453125q0.53125 -0.609375 1.3125 -0.953125q0.78125 -0.34375 1.828125 -0.34375q1.015625 0 1.765625 0.3125q0.75 0.296875 1.25 0.875q0.5 0.5625 0.75 1.390625q0.25 0.8125 0.25 1.84375zm-1.578125 0.109375q0 -0.671875 -0.125 -1.265625q-0.125 -0.59375 -0.40625 -1.03125q-0.28125 -0.453125 -0.765625 -0.703125q-0.484375 -0.265625 -1.203125 -0.265625q-0.671875 0 -1.15625 0.234375q-0.46875 0.234375 -0.78125 0.671875q-0.296875 0.4375 -0.453125 1.03125q-0.15625 0.578125 -0.15625 1.28125q0 0.671875 0.125 1.265625q0.125 0.59375 0.40625 1.046875q0.296875 0.4375 0.78125 0.703125q0.484375 0.25 1.203125 0.25q0.65625 0 1.125 -0.234375q0.484375 -0.234375 0.796875 -0.65625q0.3125 -0.4375 0.453125 -1.03125q0.15625 -0.59375 0.15625 -1.296875zm10.853882 4.078125q0 0.078125 -0.046875 0.140625q-0.03125 0.046875 -0.109375 0.078125q-0.078125 0.03125 -0.234375 0.046875q-0.140625 0.015625 -0.359375 0.015625q-0.21875 0 -0.375 -0.015625q-0.140625 -0.015625 -0.234375 -0.046875q-0.078125 -0.03125 -0.109375 -0.078125q-0.03125 -0.0625 -0.03125 -0.140625l0 -4.796875q0 -0.703125 -0.109375 -1.125q-0.109375 -0.4375 -0.328125 -0.734375q-0.203125 -0.3125 -0.546875 -0.46875q-0.328125 -0.171875 -0.765625 -0.171875q-0.5625 0 -1.125 0.40625q-0.5625 0.390625 -1.1875 1.171875l0 5.71875q0 0.078125 -0.03125 0.140625q-0.03125 0.046875 -0.125 0.078125q-0.078125 0.03125 -0.21875 0.046875q-0.140625 0.015625 -0.375 0.015625q-0.21875 0 -0.375 -0.015625q-0.140625 -0.015625 -0.234375 -0.046875q-0.078125 -0.03125 -0.109375 -0.078125q-0.03125 -0.0625 -0.03125 -0.140625l0 -8.1875q0 -0.078125 0.03125 -0.125q0.03125 -0.046875 0.109375 -0.09375q0.078125 -0.046875 0.203125 -0.046875q0.140625 -0.015625 0.34375 -0.015625q0.203125 0 0.328125 0.015625q0.140625 0 0.203125 0.046875q0.078125 0.046875 0.109375 0.09375q0.03125 0.046875 0.03125 0.125l0 1.078125q0.6875 -0.765625 1.375 -1.125q0.6875 -0.375 1.390625 -0.375q0.828125 0 1.375 0.28125q0.5625 0.28125 0.90625 0.75q0.359375 0.46875 0.5 1.09375q0.15625 0.609375 0.15625 1.484375l0 5.0z" fill-rule="nonzero"/><path fill="#cfe2f3" d="m316.12335 59.71889l0 0c0 -5.8273735 4.7240295 -10.551392 10.551392 -10.551392l115.59015 0c2.7984009 0 5.4821777 1.11166 7.4609375 3.0904312c1.9787903 1.9787674 3.090454 4.6625557 3.090454 7.4609604l0 42.204304c0 5.8273697 -4.7240295 10.551392 -10.551392 10.551392l-115.59015 0c-5.827362 0 -10.551392 -4.724022 -10.551392 -10.551392z" fill-rule="evenodd"/><path stroke="#000000" stroke-width="1.0" stroke-linejoin="round" stroke-linecap="butt" d="m316.12335 59.71889l0 0c0 -5.8273735 4.7240295 -10.551392 10.551392 -10.551392l115.59015 0c2.7984009 0 5.4821777 1.11166 7.4609375 3.0904312c1.9787903 1.9787674 3.090454 4.6625557 3.090454 7.4609604l0 42.204304c0 5.8273697 -4.7240295 10.551392 -10.551392 10.551392l-115.59015 0c-5.827362 0 -10.551392 -4.724022 -10.551392 -10.551392z" fill-rule="evenodd"/><path fill="#000000" d="m364.65845 84.42854q0 0.828125 -0.3125 1.484375q-0.296875 0.640625 -0.84375 1.09375q-0.53125 0.453125 -1.265625 0.6875q-0.734375 0.21875 -1.578125 0.21875q-0.59375 0 -1.109375 -0.109375q-0.5 -0.09375 -0.890625 -0.234375q-0.390625 -0.140625 -0.671875 -0.296875q-0.265625 -0.15625 -0.375 -0.265625q-0.09375 -0.109375 -0.15625 -0.28125q-0.046875 -0.171875 -0.046875 -0.453125q0 -0.203125 0.015625 -0.328125q0.03125 -0.140625 0.0625 -0.21875q0.03125 -0.078125 0.078125 -0.109375q0.0625 -0.03125 0.140625 -0.03125q0.125 0 0.359375 0.15625q0.234375 0.15625 0.59375 0.34375q0.375 0.171875 0.875 0.328125q0.515625 0.15625 1.203125 0.15625q0.5 0 0.921875 -0.125q0.421875 -0.140625 0.734375 -0.390625q0.3125 -0.25 0.46875 -0.609375q0.171875 -0.375 0.171875 -0.84375q0 -0.5 -0.234375 -0.84375q-0.234375 -0.359375 -0.609375 -0.625q-0.359375 -0.265625 -0.84375 -0.484375q-0.484375 -0.234375 -0.984375 -0.46875q-0.5 -0.234375 -0.96875 -0.515625q-0.46875 -0.28125 -0.84375 -0.65625q-0.375 -0.390625 -0.609375 -0.90625q-0.234375 -0.515625 -0.234375 -1.234375q0 -0.734375 0.265625 -1.3125q0.265625 -0.578125 0.75 -0.96875q0.484375 -0.390625 1.140625 -0.59375q0.65625 -0.203125 1.421875 -0.203125q0.390625 0 0.78125 0.0625q0.40625 0.0625 0.75 0.1875q0.359375 0.109375 0.625 0.25q0.28125 0.140625 0.359375 0.234375q0.09375 0.078125 0.109375 0.125q0.03125 0.046875 0.046875 0.125q0.03125 0.078125 0.03125 0.1875q0.015625 0.109375 0.015625 0.28125q0 0.171875 -0.015625 0.296875q-0.015625 0.125 -0.046875 0.21875q-0.015625 0.078125 -0.078125 0.125q-0.046875 0.046875 -0.109375 0.046875q-0.09375 0 -0.3125 -0.125q-0.21875 -0.140625 -0.53125 -0.296875q-0.296875 -0.15625 -0.734375 -0.28125q-0.421875 -0.140625 -0.9375 -0.140625q-0.5 0 -0.859375 0.140625q-0.359375 0.125 -0.609375 0.34375q-0.234375 0.21875 -0.359375 0.515625q-0.109375 0.296875 -0.109375 0.640625q0 0.484375 0.21875 0.84375q0.234375 0.359375 0.609375 0.640625q0.390625 0.265625 0.859375 0.5q0.484375 0.21875 0.984375 0.453125q0.515625 0.234375 0.984375 0.515625q0.484375 0.265625 0.859375 0.65625q0.390625 0.375 0.609375 0.890625q0.234375 0.5 0.234375 1.203125zm6.337677 2.484375q0 0.265625 -0.046875 0.421875q-0.03125 0.15625 -0.109375 0.234375q-0.0625 0.0625 -0.21875 0.125q-0.140625 0.0625 -0.328125 0.09375q-0.1875 0.046875 -0.390625 0.078125q-0.203125 0.03125 -0.421875 0.03125q-0.640625 0 -1.09375 -0.171875q-0.453125 -0.171875 -0.75 -0.5q-0.28125 -0.34375 -0.421875 -0.859375q-0.125 -0.53125 -0.125 -1.25l0 -4.796875l-1.15625 0q-0.125 0 -0.21875 -0.140625q-0.078125 -0.140625 -0.078125 -0.46875q0 -0.171875 0.015625 -0.28125q0.03125 -0.125 0.0625 -0.203125q0.046875 -0.078125 0.09375 -0.109375q0.0625 -0.03125 0.140625 -0.03125l1.140625 0l0 -1.953125q0 -0.0625 0.03125 -0.109375q0.03125 -0.0625 0.109375 -0.109375q0.09375 -0.046875 0.234375 -0.0625q0.15625 -0.015625 0.375 -0.015625q0.21875 0 0.359375 0.015625q0.15625 0.015625 0.234375 0.0625q0.078125 0.046875 0.109375 0.109375q0.046875 0.046875 0.046875 0.109375l0 1.953125l2.109375 0q0.0625 0 0.109375 0.03125q0.0625 0.03125 0.109375 0.109375q0.046875 0.078125 0.0625 0.203125q0.015625 0.109375 0.015625 0.28125q0 0.328125 -0.078125 0.46875q-0.078125 0.140625 -0.21875 0.140625l-2.109375 0l0 4.578125q0 0.84375 0.25 1.28125q0.25 0.4375 0.90625 0.4375q0.203125 0 0.359375 -0.046875q0.171875 -0.046875 0.296875 -0.078125q0.125 -0.046875 0.21875 -0.09375q0.09375 -0.046875 0.171875 -0.046875q0.046875 0 0.078125 0.03125q0.046875 0.015625 0.0625 0.078125q0.03125 0.0625 0.046875 0.171875q0.015625 0.109375 0.015625 0.28125zm8.155365 0.609375q0 0.109375 -0.078125 0.171875q-0.0625 0.046875 -0.1875 0.0625q-0.125 0.03125 -0.375 0.03125q-0.234375 0 -0.375 -0.03125q-0.140625 -0.015625 -0.203125 -0.0625q-0.0625 -0.0625 -0.0625 -0.171875l0 -0.8125q-0.546875 0.5625 -1.203125 0.890625q-0.65625 0.3125 -1.390625 0.3125q-0.65625 0 -1.1875 -0.171875q-0.515625 -0.15625 -0.890625 -0.46875q-0.359375 -0.328125 -0.5625 -0.796875q-0.203125 -0.46875 -0.203125 -1.0625q0 -0.6875 0.28125 -1.1875q0.28125 -0.515625 0.796875 -0.84375q0.53125 -0.34375 1.296875 -0.515625q0.765625 -0.171875 1.734375 -0.171875l1.125 0l0 -0.640625q0 -0.46875 -0.109375 -0.828125q-0.09375 -0.375 -0.328125 -0.609375q-0.21875 -0.25 -0.578125 -0.359375q-0.34375 -0.125 -0.859375 -0.125q-0.5625 0 -1.0 0.140625q-0.4375 0.125 -0.78125 0.28125q-0.328125 0.15625 -0.546875 0.296875q-0.21875 0.125 -0.328125 0.125q-0.078125 0 -0.140625 -0.03125q-0.046875 -0.046875 -0.09375 -0.109375q-0.03125 -0.078125 -0.0625 -0.1875q-0.015625 -0.125 -0.015625 -0.25q0 -0.234375 0.03125 -0.359375q0.03125 -0.140625 0.15625 -0.25q0.125 -0.125 0.421875 -0.28125q0.3125 -0.171875 0.703125 -0.296875q0.390625 -0.125 0.84375 -0.21875q0.46875 -0.09375 0.953125 -0.09375q0.875 0 1.484375 0.203125q0.625 0.203125 1.0 0.59375q0.390625 0.390625 0.5625 0.96875q0.171875 0.5625 0.171875 1.328125l0 5.53125zm-1.484375 -3.75l-1.28125 0q-0.625 0 -1.078125 0.109375q-0.453125 0.109375 -0.765625 0.3125q-0.296875 0.203125 -0.4375 0.5q-0.140625 0.28125 -0.140625 0.65625q0 0.625 0.40625 1.015625q0.40625 0.375 1.140625 0.375q0.59375 0 1.09375 -0.296875q0.5 -0.3125 1.0625 -0.921875l0 -1.75zm11.108276 -4.078125q0 0.3125 -0.09375 0.453125q-0.078125 0.140625 -0.21875 0.140625l-1.171875 0q0.3125 0.328125 0.4375 0.734375q0.125 0.390625 0.125 0.8125q0 0.71875 -0.234375 1.265625q-0.21875 0.546875 -0.640625 0.921875q-0.421875 0.375 -1.015625 0.578125q-0.578125 0.203125 -1.28125 0.203125q-0.5 0 -0.953125 -0.125q-0.453125 -0.140625 -0.703125 -0.34375q-0.15625 0.15625 -0.265625 0.375q-0.109375 0.203125 -0.109375 0.484375q0 0.3125 0.296875 0.53125q0.296875 0.203125 0.796875 0.21875l2.140625 0.09375q0.609375 0.015625 1.109375 0.171875q0.515625 0.140625 0.890625 0.421875q0.375 0.28125 0.578125 0.6875q0.21875 0.40625 0.21875 0.9375q0 0.5625 -0.25 1.078125q-0.234375 0.515625 -0.71875 0.890625q-0.484375 0.390625 -1.25 0.609375q-0.75 0.234375 -1.78125 0.234375q-0.984375 0 -1.6875 -0.171875q-0.6875 -0.171875 -1.140625 -0.46875q-0.4375 -0.28125 -0.640625 -0.6875q-0.203125 -0.40625 -0.203125 -0.875q0 -0.3125 0.0625 -0.59375q0.078125 -0.28125 0.21875 -0.53125q0.15625 -0.25 0.375 -0.484375q0.234375 -0.234375 0.53125 -0.46875q-0.453125 -0.21875 -0.671875 -0.5625q-0.203125 -0.359375 -0.203125 -0.75q0 -0.5625 0.21875 -1.0q0.234375 -0.4375 0.5625 -0.78125q-0.28125 -0.328125 -0.453125 -0.75q-0.15625 -0.4375 -0.15625 -1.03125q0 -0.703125 0.234375 -1.25q0.25 -0.5625 0.65625 -0.9375q0.421875 -0.390625 1.015625 -0.59375q0.59375 -0.203125 1.28125 -0.203125q0.375 0 0.6875 0.046875q0.328125 0.03125 0.609375 0.109375l2.484375 0q0.15625 0 0.234375 0.15625q0.078125 0.140625 0.078125 0.453125zm-2.359375 2.15625q0 -0.84375 -0.46875 -1.3125q-0.453125 -0.46875 -1.296875 -0.46875q-0.4375 0 -0.765625 0.15625q-0.3125 0.140625 -0.53125 0.390625q-0.21875 0.25 -0.328125 0.59375q-0.09375 0.328125 -0.09375 0.6875q0 0.8125 0.453125 1.28125q0.46875 0.46875 1.296875 0.46875q0.4375 0 0.765625 -0.140625q0.328125 -0.140625 0.546875 -0.390625q0.21875 -0.25 0.3125 -0.578125q0.109375 -0.328125 0.109375 -0.6875zm0.765625 6.484375q0 -0.515625 -0.4375 -0.796875q-0.4375 -0.296875 -1.171875 -0.3125l-2.125 -0.078125q-0.296875 0.234375 -0.484375 0.4375q-0.171875 0.203125 -0.28125 0.390625q-0.109375 0.1875 -0.15625 0.359375q-0.046875 0.1875 -0.046875 0.375q0 0.59375 0.59375 0.890625q0.609375 0.3125 1.6875 0.3125q0.6875 0 1.140625 -0.140625q0.46875 -0.125 0.75 -0.34375q0.28125 -0.21875 0.40625 -0.5q0.125 -0.28125 0.125 -0.59375zm5.01593 -0.828125q0 0.078125 -0.03125 0.140625q-0.03125 0.046875 -0.125 0.078125q-0.078125 0.03125 -0.21875 0.046875q-0.140625 0.015625 -0.375 0.015625q-0.21875 0 -0.375 -0.015625q-0.140625 -0.015625 -0.234375 -0.046875q-0.078125 -0.03125 -0.109375 -0.078125q-0.03125 -0.0625 -0.03125 -0.140625l0 -8.1875q0 -0.0625 0.03125 -0.109375q0.03125 -0.0625 0.109375 -0.09375q0.09375 -0.046875 0.234375 -0.0625q0.15625 -0.015625 0.375 -0.015625q0.234375 0 0.375 0.015625q0.140625 0.015625 0.21875 0.0625q0.09375 0.03125 0.125 0.09375q0.03125 0.046875 0.03125 0.109375l0 8.1875zm0.171875 -10.96875q0 0.53125 -0.203125 0.734375q-0.1875 0.1875 -0.734375 0.1875q-0.515625 0 -0.71875 -0.1875q-0.1875 -0.1875 -0.1875 -0.703125q0 -0.53125 0.1875 -0.71875q0.203125 -0.203125 0.75 -0.203125q0.515625 0 0.703125 0.1875q0.203125 0.1875 0.203125 0.703125zm9.672089 10.96875q0 0.078125 -0.046875 0.140625q-0.03125 0.046875 -0.109375 0.078125q-0.078125 0.03125 -0.234375 0.046875q-0.140625 0.015625 -0.359375 0.015625q-0.21875 0 -0.375 -0.015625q-0.140625 -0.015625 -0.234375 -0.046875q-0.078125 -0.03125 -0.109375 -0.078125q-0.03125 -0.0625 -0.03125 -0.140625l0 -4.796875q0 -0.703125 -0.109375 -1.125q-0.109375 -0.4375 -0.328125 -0.734375q-0.203125 -0.3125 -0.546875 -0.46875q-0.328125 -0.171875 -0.765625 -0.171875q-0.5625 0 -1.125 0.40625q-0.5625 0.390625 -1.1875 1.171875l0 5.71875q0 0.078125 -0.03125 0.140625q-0.03125 0.046875 -0.125 0.078125q-0.078125 0.03125 -0.21875 0.046875q-0.140625 0.015625 -0.375 0.015625q-0.21875 0 -0.375 -0.015625q-0.140625 -0.015625 -0.234375 -0.046875q-0.078125 -0.03125 -0.109375 -0.078125q-0.03125 -0.0625 -0.03125 -0.140625l0 -8.1875q0 -0.078125 0.03125 -0.125q0.03125 -0.046875 0.109375 -0.09375q0.078125 -0.046875 0.203125 -0.046875q0.140625 -0.015625 0.34375 -0.015625q0.203125 0 0.328125 0.015625q0.140625 0 0.203125 0.046875q0.078125 0.046875 0.109375 0.09375q0.03125 0.046875 0.03125 0.125l0 1.078125q0.6875 -0.765625 1.375 -1.125q0.6875 -0.375 1.390625 -0.375q0.828125 0 1.375 0.28125q0.5625 0.28125 0.90625 0.75q0.359375 0.46875 0.5 1.09375q0.15625 0.609375 0.15625 1.484375l0 5.0zm9.598694 -7.8125q0 0.3125 -0.09375 0.453125q-0.078125 0.140625 -0.21875 0.140625l-1.171875 0q0.3125 0.328125 0.4375 0.734375q0.125 0.390625 0.125 0.8125q0 0.71875 -0.234375 1.265625q-0.21875 0.546875 -0.640625 0.921875q-0.421875 0.375 -1.015625 0.578125q-0.578125 0.203125 -1.28125 0.203125q-0.5 0 -0.953125 -0.125q-0.453125 -0.140625 -0.703125 -0.34375q-0.15625 0.15625 -0.265625 0.375q-0.109375 0.203125 -0.109375 0.484375q0 0.3125 0.296875 0.53125q0.296875 0.203125 0.796875 0.21875l2.140625 0.09375q0.609375 0.015625 1.109375 0.171875q0.515625 0.140625 0.890625 0.421875q0.375 0.28125 0.578125 0.6875q0.21875 0.40625 0.21875 0.9375q0 0.5625 -0.25 1.078125q-0.234375 0.515625 -0.71875 0.890625q-0.484375 0.390625 -1.25 0.609375q-0.75 0.234375 -1.78125 0.234375q-0.984375 0 -1.6875 -0.171875q-0.6875 -0.171875 -1.140625 -0.46875q-0.4375 -0.28125 -0.640625 -0.6875q-0.203125 -0.40625 -0.203125 -0.875q0 -0.3125 0.0625 -0.59375q0.078125 -0.28125 0.21875 -0.53125q0.15625 -0.25 0.375 -0.484375q0.234375 -0.234375 0.53125 -0.46875q-0.453125 -0.21875 -0.671875 -0.5625q-0.203125 -0.359375 -0.203125 -0.75q0 -0.5625 0.21875 -1.0q0.234375 -0.4375 0.5625 -0.78125q-0.28125 -0.328125 -0.453125 -0.75q-0.15625 -0.4375 -0.15625 -1.03125q0 -0.703125 0.234375 -1.25q0.25 -0.5625 0.65625 -0.9375q0.421875 -0.390625 1.015625 -0.59375q0.59375 -0.203125 1.28125 -0.203125q0.375 0 0.6875 0.046875q0.328125 0.03125 0.609375 0.109375l2.484375 0q0.15625 0 0.234375 0.15625q0.078125 0.140625 0.078125 0.453125zm-2.359375 2.15625q0 -0.84375 -0.46875 -1.3125q-0.453125 -0.46875 -1.296875 -0.46875q-0.4375 0 -0.765625 0.15625q-0.3125 0.140625 -0.53125 0.390625q-0.21875 0.25 -0.328125 0.59375q-0.09375 0.328125 -0.09375 0.6875q0 0.8125 0.453125 1.28125q0.46875 0.46875 1.296875 0.46875q0.4375 0 0.765625 -0.140625q0.328125 -0.140625 0.546875 -0.390625q0.21875 -0.25 0.3125 -0.578125q0.109375 -0.328125 0.109375 -0.6875zm0.765625 6.484375q0 -0.515625 -0.4375 -0.796875q-0.4375 -0.296875 -1.171875 -0.3125l-2.125 -0.078125q-0.296875 0.234375 -0.484375 0.4375q-0.171875 0.203125 -0.28125 0.390625q-0.109375 0.1875 -0.15625 0.359375q-0.046875 0.1875 -0.046875 0.375q0 0.59375 0.59375 0.890625q0.609375 0.3125 1.6875 0.3125q0.6875 0 1.140625 -0.140625q0.46875 -0.125 0.75 -0.34375q0.28125 -0.21875 0.40625 -0.5q0.125 -0.28125 0.125 -0.59375z" fill-rule="nonzero"/><path fill="#cfe2f3" d="m461.68765 59.71889l0 0c0 -5.8273735 4.7240295 -10.551392 10.551392 -10.551392l115.59012 0c2.7984009 0 5.482239 1.11166 7.4609985 3.0904312c1.9787598 1.9787674 3.090393 4.6625557 3.090393 7.4609604l0 42.204304c0 5.8273697 -4.723999 10.551392 -10.551392 10.551392l-115.59012 0c-5.827362 0 -10.551392 -4.724022 -10.551392 -10.551392z" fill-rule="evenodd"/><path stroke="#000000" stroke-width="1.0" stroke-linejoin="round" stroke-linecap="butt" d="m461.68765 59.71889l0 0c0 -5.8273735 4.7240295 -10.551392 10.551392 -10.551392l115.59012 0c2.7984009 0 5.482239 1.11166 7.4609985 3.0904312c1.9787598 1.9787674 3.090393 4.6625557 3.090393 7.4609604l0 42.204304c0 5.8273697 -4.723999 10.551392 -10.551392 10.551392l-115.59012 0c-5.827362 0 -10.551392 -4.724022 -10.551392 -10.551392z" fill-rule="evenodd"/><path fill="#000000" d="m497.02493 79.41292q0 0.875 -0.296875 1.59375q-0.296875 0.703125 -0.84375 1.203125q-0.53125 0.5 -1.328125 0.78125q-0.78125 0.265625 -1.875 0.265625l-1.328125 0l0 4.25q0 0.078125 -0.046875 0.140625q-0.046875 0.046875 -0.140625 0.078125q-0.078125 0.03125 -0.234375 0.046875q-0.140625 0.015625 -0.375 0.015625q-0.21875 0 -0.375 -0.015625q-0.140625 -0.015625 -0.234375 -0.046875q-0.09375 -0.03125 -0.140625 -0.078125q-0.03125 -0.0625 -0.03125 -0.140625l0 -10.875q0 -0.375 0.1875 -0.515625q0.203125 -0.15625 0.4375 -0.15625l2.515625 0q0.390625 0 0.734375 0.03125q0.359375 0.03125 0.828125 0.140625q0.484375 0.09375 0.984375 0.390625q0.5 0.28125 0.84375 0.703125q0.34375 0.40625 0.53125 0.96875q0.1875 0.546875 0.1875 1.21875zm-1.65625 0.125q0 -0.71875 -0.265625 -1.203125q-0.265625 -0.484375 -0.671875 -0.71875q-0.390625 -0.234375 -0.8125 -0.296875q-0.421875 -0.078125 -0.828125 -0.078125l-1.4375 0l0 4.734375l1.40625 0q0.703125 0 1.171875 -0.171875q0.46875 -0.1875 0.78125 -0.515625q0.328125 -0.328125 0.484375 -0.765625q0.171875 -0.453125 0.171875 -0.984375zm8.669098 0.3125q0 0.203125 -0.015625 0.34375q0 0.125 -0.03125 0.203125q-0.03125 0.078125 -0.078125 0.125q-0.03125 0.046875 -0.109375 0.046875q-0.0625 0 -0.171875 -0.046875q-0.109375 -0.046875 -0.25 -0.078125q-0.125 -0.046875 -0.296875 -0.078125q-0.15625 -0.046875 -0.34375 -0.046875q-0.21875 0 -0.4375 0.09375q-0.21875 0.09375 -0.46875 0.3125q-0.234375 0.203125 -0.5 0.546875q-0.265625 0.34375 -0.59375 0.84375l0 5.390625q0 0.078125 -0.03125 0.140625q-0.03125 0.046875 -0.125 0.078125q-0.078125 0.03125 -0.21875 0.046875q-0.140625 0.015625 -0.375 0.015625q-0.21875 0 -0.375 -0.015625q-0.140625 -0.015625 -0.234375 -0.046875q-0.078125 -0.03125 -0.109375 -0.078125q-0.03125 -0.0625 -0.03125 -0.140625l0 -8.1875q0 -0.078125 0.03125 -0.125q0.03125 -0.046875 0.109375 -0.09375q0.078125 -0.046875 0.203125 -0.046875q0.140625 -0.015625 0.34375 -0.015625q0.203125 0 0.328125 0.015625q0.140625 0 0.203125 0.046875q0.078125 0.046875 0.109375 0.09375q0.03125 0.046875 0.03125 0.125l0 1.1875q0.34375 -0.484375 0.640625 -0.796875q0.296875 -0.3125 0.546875 -0.484375q0.265625 -0.1875 0.53125 -0.25q0.265625 -0.078125 0.515625 -0.078125q0.125 0 0.265625 0.015625q0.15625 0.015625 0.3125 0.0625q0.171875 0.03125 0.296875 0.078125q0.140625 0.046875 0.1875 0.09375q0.0625 0.046875 0.078125 0.09375q0.03125 0.03125 0.03125 0.09375q0.015625 0.0625 0.015625 0.1875q0.015625 0.125 0.015625 0.328125zm9.332275 3.46875q0 1.0 -0.265625 1.84375q-0.265625 0.84375 -0.796875 1.453125q-0.5155945 0.609375 -1.3124695 0.953125q-0.78125 0.34375 -1.8125 0.34375q-1.015625 0 -1.765625 -0.296875q-0.75 -0.296875 -1.25 -0.875q-0.5 -0.578125 -0.75 -1.390625q-0.25 -0.828125 -0.25 -1.859375q0 -1.0 0.265625 -1.84375q0.265625 -0.84375 0.78125 -1.453125q0.53125 -0.609375 1.3125 -0.953125q0.78125 -0.34375 1.828125 -0.34375q1.015625 0 1.765625 0.3125q0.75 0.296875 1.2499695 0.875q0.5 0.5625 0.75 1.390625q0.25 0.8125 0.25 1.84375zm-1.5780945 0.109375q0 -0.671875 -0.125 -1.265625q-0.125 -0.59375 -0.40625 -1.03125q-0.28125 -0.453125 -0.765625 -0.703125q-0.484375 -0.265625 -1.203125 -0.265625q-0.671875 0 -1.15625 0.234375q-0.46875 0.234375 -0.78125 0.671875q-0.296875 0.4375 -0.453125 1.03125q-0.15625 0.578125 -0.15625 1.28125q0 0.671875 0.125 1.265625q0.125 0.59375 0.40625 1.046875q0.296875 0.4375 0.78125 0.703125q0.484375 0.25 1.203125 0.25q0.65625 0 1.125 -0.234375q0.484375 -0.234375 0.796875 -0.65625q0.3125 -0.4375 0.453125 -1.03125q0.15625 -0.59375 0.15625 -1.296875zm10.822601 4.078125q0 0.078125 -0.03125 0.140625q-0.03125 0.046875 -0.109375 0.078125q-0.078125 0.03125 -0.21875 0.046875q-0.125 0.015625 -0.296875 0.015625q-0.203125 0 -0.328125 -0.015625q-0.125 -0.015625 -0.203125 -0.046875q-0.078125 -0.03125 -0.125 -0.078125q-0.03125 -0.0625 -0.03125 -0.140625l0 -1.078125q-0.640625 0.703125 -1.34375 1.09375q-0.703125 0.390625 -1.53125 0.390625q-0.890625 0 -1.53125 -0.34375q-0.640625 -0.359375 -1.046875 -0.953125q-0.390625 -0.59375 -0.578125 -1.390625q-0.171875 -0.8125 -0.171875 -1.71875q0 -1.046875 0.21875 -1.890625q0.234375 -0.859375 0.671875 -1.453125q0.453125 -0.609375 1.109375 -0.9375q0.671875 -0.328125 1.53125 -0.328125q0.71875 0 1.3125 0.328125q0.609375 0.3125 1.1875 0.921875l0 -4.765625q0 -0.0625 0.03125 -0.125q0.03125 -0.0625 0.125 -0.09375q0.09375 -0.03125 0.234375 -0.046875q0.140625 -0.03125 0.359375 -0.03125q0.21875 0 0.359375 0.03125q0.15625 0.015625 0.234375 0.046875q0.078125 0.03125 0.125 0.09375q0.046875 0.0625 0.046875 0.125l0 12.125zm-1.515625 -5.765625q-0.609375 -0.75 -1.1875 -1.140625q-0.5625 -0.40625 -1.1875 -0.40625q-0.5625 0 -0.96875 0.28125q-0.40625 0.265625 -0.65625 0.71875q-0.25 0.4375 -0.359375 1.015625q-0.109375 0.5625 -0.109375 1.140625q0 0.625 0.09375 1.21875q0.09375 0.578125 0.328125 1.046875q0.234375 0.453125 0.625 0.734375q0.390625 0.28125 0.984375 0.28125q0.296875 0 0.578125 -0.078125q0.28125 -0.09375 0.5625 -0.28125q0.296875 -0.1875 0.609375 -0.484375q0.328125 -0.3125 0.6875 -0.765625l0 -3.28125zm11.317444 5.765625q0 0.078125 -0.03125 0.140625q-0.03125 0.046875 -0.125 0.078125q-0.078125 0.03125 -0.21875 0.046875q-0.125 0.015625 -0.3125 0.015625q-0.203125 0 -0.34375 -0.015625q-0.125 -0.015625 -0.203125 -0.046875q-0.078125 -0.03125 -0.109375 -0.078125q-0.03125 -0.0625 -0.03125 -0.140625l0 -1.078125q-0.703125 0.78125 -1.390625 1.140625q-0.671875 0.34375 -1.375 0.34375q-0.8125 0 -1.375 -0.265625q-0.5625 -0.28125 -0.90625 -0.75q-0.34375 -0.46875 -0.5 -1.09375q-0.15625 -0.625 -0.15625 -1.515625l0 -4.96875q0 -0.078125 0.03125 -0.125q0.03125 -0.046875 0.125 -0.09375q0.09375 -0.046875 0.234375 -0.046875q0.15625 -0.015625 0.375 -0.015625q0.21875 0 0.359375 0.015625q0.140625 0 0.21875 0.046875q0.09375 0.046875 0.125 0.09375q0.046875 0.046875 0.046875 0.125l0 4.765625q0 0.71875 0.09375 1.15625q0.109375 0.4375 0.328125 0.75q0.21875 0.296875 0.546875 0.46875q0.328125 0.15625 0.765625 0.15625q0.5625 0 1.125 -0.390625q0.5625 -0.40625 1.1875 -1.1875l0 -5.71875q0 -0.078125 0.03125 -0.125q0.03125 -0.046875 0.125 -0.09375q0.09375 -0.046875 0.234375 -0.046875q0.140625 -0.015625 0.359375 -0.015625q0.21875 0 0.359375 0.015625q0.15625 0 0.234375 0.046875q0.078125 0.046875 0.125 0.09375q0.046875 0.046875 0.046875 0.125l0 8.1875zm8.661194 -1.234375q0 0.140625 -0.015625 0.265625q0 0.109375 -0.03125 0.1875q-0.015625 0.078125 -0.046875 0.140625q-0.03125 0.0625 -0.140625 0.171875q-0.109375 0.109375 -0.390625 0.28125q-0.265625 0.171875 -0.609375 0.3125q-0.34375 0.125 -0.75 0.203125q-0.390625 0.078125 -0.828125 0.078125q-0.875 0 -1.5625 -0.28125q-0.6875 -0.296875 -1.15625 -0.859375q-0.453125 -0.5625 -0.703125 -1.375q-0.234375 -0.8125 -0.234375 -1.890625q0 -1.203125 0.296875 -2.0625q0.296875 -0.875 0.8125 -1.4375q0.515625 -0.5625 1.203125 -0.828125q0.703125 -0.265625 1.515625 -0.265625q0.390625 0 0.765625 0.078125q0.375 0.0625 0.671875 0.1875q0.3125 0.125 0.546875 0.28125q0.25 0.140625 0.359375 0.25q0.109375 0.109375 0.140625 0.1875q0.046875 0.0625 0.078125 0.15625q0.03125 0.078125 0.03125 0.1875q0.015625 0.109375 0.015625 0.265625q0 0.359375 -0.078125 0.5q-0.078125 0.140625 -0.203125 0.140625q-0.140625 0 -0.3125 -0.140625q-0.171875 -0.15625 -0.453125 -0.34375q-0.265625 -0.1875 -0.65625 -0.328125q-0.390625 -0.15625 -0.921875 -0.15625q-1.078125 0 -1.65625 0.84375q-0.578125 0.828125 -0.578125 2.40625q0 0.796875 0.140625 1.390625q0.15625 0.59375 0.4375 1.0q0.296875 0.40625 0.71875 0.609375q0.4375 0.1875 0.984375 0.1875q0.515625 0 0.90625 -0.15625q0.390625 -0.171875 0.671875 -0.359375q0.296875 -0.203125 0.484375 -0.359375q0.203125 -0.171875 0.3125 -0.171875q0.0625 0 0.109375 0.046875q0.046875 0.03125 0.078125 0.125q0.03125 0.078125 0.03125 0.21875q0.015625 0.125 0.015625 0.3125zm6.263855 0.640625q0 0.265625 -0.046875 0.421875q-0.03125 0.15625 -0.109375 0.234375q-0.0625 0.0625 -0.21875 0.125q-0.140625 0.0625 -0.328125 0.09375q-0.1875 0.046875 -0.390625 0.078125q-0.203125 0.03125 -0.421875 0.03125q-0.640625 0 -1.09375 -0.171875q-0.453125 -0.171875 -0.75 -0.5q-0.28125 -0.34375 -0.421875 -0.859375q-0.125 -0.53125 -0.125 -1.25l0 -4.796875l-1.15625 0q-0.125 0 -0.21875 -0.140625q-0.078125 -0.140625 -0.078125 -0.46875q0 -0.171875 0.015625 -0.28125q0.03125 -0.125 0.0625 -0.203125q0.046875 -0.078125 0.09375 -0.109375q0.0625 -0.03125 0.140625 -0.03125l1.140625 0l0 -1.953125q0 -0.0625 0.03125 -0.109375q0.03125 -0.0625 0.109375 -0.109375q0.09375 -0.046875 0.234375 -0.0625q0.15625 -0.015625 0.375 -0.015625q0.21875 0 0.359375 0.015625q0.15625 0.015625 0.234375 0.0625q0.078125 0.046875 0.109375 0.109375q0.046875 0.046875 0.046875 0.109375l0 1.953125l2.109375 0q0.0625 0 0.109375 0.03125q0.0625 0.03125 0.109375 0.109375q0.046875 0.078125 0.0625 0.203125q0.015625 0.109375 0.015625 0.28125q0 0.328125 -0.078125 0.46875q-0.078125 0.140625 -0.21875 0.140625l-2.109375 0l0 4.578125q0 0.84375 0.25 1.28125q0.25 0.4375 0.90625 0.4375q0.203125 0 0.359375 -0.046875q0.171875 -0.046875 0.296875 -0.078125q0.125 -0.046875 0.21875 -0.09375q0.09375 -0.046875 0.171875 -0.046875q0.046875 0 0.078125 0.03125q0.046875 0.015625 0.0625 0.078125q0.03125 0.0625 0.046875 0.171875q0.015625 0.109375 0.015625 0.28125zm3.4834595 0.59375q0 0.078125 -0.03125 0.140625q-0.03125 0.046875 -0.125 0.078125q-0.078125 0.03125 -0.21875 0.046875q-0.140625 0.015625 -0.375 0.015625q-0.21875 0 -0.375 -0.015625q-0.140625 -0.015625 -0.234375 -0.046875q-0.078125 -0.03125 -0.109375 -0.078125q-0.03125 -0.0625 -0.03125 -0.140625l0 -8.1875q0 -0.0625 0.03125 -0.109375q0.03125 -0.0625 0.109375 -0.09375q0.09375 -0.046875 0.234375 -0.0625q0.15625 -0.015625 0.375 -0.015625q0.234375 0 0.375 0.015625q0.140625 0.015625 0.21875 0.0625q0.09375 0.03125 0.125 0.09375q0.03125 0.046875 0.03125 0.109375l0 8.1875zm0.171875 -10.96875q0 0.53125 -0.203125 0.734375q-0.1875 0.1875 -0.734375 0.1875q-0.515625 0 -0.71875 -0.1875q-0.1875 -0.1875 -0.1875 -0.703125q0 -0.53125 0.1875 -0.71875q0.203125 -0.203125 0.75 -0.203125q0.515625 0 0.703125 0.1875q0.203125 0.1875 0.203125 0.703125zm10.234619 6.78125q0 1.0 -0.265625 1.84375q-0.265625 0.84375 -0.796875 1.453125q-0.515625 0.609375 -1.3125 0.953125q-0.78125 0.34375 -1.8125 0.34375q-1.015625 0 -1.765625 -0.296875q-0.75 -0.296875 -1.25 -0.875q-0.5 -0.578125 -0.75 -1.390625q-0.25 -0.828125 -0.25 -1.859375q0 -1.0 0.265625 -1.84375q0.265625 -0.84375 0.78125 -1.453125q0.53125 -0.609375 1.3125 -0.953125q0.78125 -0.34375 1.828125 -0.34375q1.015625 0 1.765625 0.3125q0.75 0.296875 1.25 0.875q0.5 0.5625 0.75 1.390625q0.25 0.8125 0.25 1.84375zm-1.578125 0.109375q0 -0.671875 -0.125 -1.265625q-0.125 -0.59375 -0.40625 -1.03125q-0.28125 -0.453125 -0.765625 -0.703125q-0.484375 -0.265625 -1.203125 -0.265625q-0.671875 0 -1.15625 0.234375q-0.46875 0.234375 -0.78125 0.671875q-0.296875 0.4375 -0.453125 1.03125q-0.15625 0.578125 -0.15625 1.28125q0 0.671875 0.125 1.265625q0.125 0.59375 0.40625 1.046875q0.296875 0.4375 0.78125 0.703125q0.484375 0.25 1.203125 0.25q0.65625 0 1.125 -0.234375q0.484375 -0.234375 0.796875 -0.65625q0.3125 -0.4375 0.453125 -1.03125q0.15625 -0.59375 0.15625 -1.296875zm10.853882 4.078125q0 0.078125 -0.046875 0.140625q-0.03125 0.046875 -0.109375 0.078125q-0.078125 0.03125 -0.234375 0.046875q-0.140625 0.015625 -0.359375 0.015625q-0.21875 0 -0.375 -0.015625q-0.140625 -0.015625 -0.234375 -0.046875q-0.078125 -0.03125 -0.109375 -0.078125q-0.03125 -0.0625 -0.03125 -0.140625l0 -4.796875q0 -0.703125 -0.109375 -1.125q-0.109375 -0.4375 -0.328125 -0.734375q-0.203125 -0.3125 -0.546875 -0.46875q-0.328125 -0.171875 -0.765625 -0.171875q-0.5625 0 -1.125 0.40625q-0.5625 0.390625 -1.1875 1.171875l0 5.71875q0 0.078125 -0.03125 0.140625q-0.03125 0.046875 -0.125 0.078125q-0.078125 0.03125 -0.21875 0.046875q-0.140625 0.015625 -0.375 0.015625q-0.21875 0 -0.375 -0.015625q-0.140625 -0.015625 -0.234375 -0.046875q-0.078125 -0.03125 -0.109375 -0.078125q-0.03125 -0.0625 -0.03125 -0.140625l0 -8.1875q0 -0.078125 0.03125 -0.125q0.03125 -0.046875 0.109375 -0.09375q0.078125 -0.046875 0.203125 -0.046875q0.140625 -0.015625 0.34375 -0.015625q0.203125 0 0.328125 0.015625q0.140625 0 0.203125 0.046875q0.078125 0.046875 0.109375 0.09375q0.03125 0.046875 0.03125 0.125l0 1.078125q0.6875 -0.765625 1.375 -1.125q0.6875 -0.375 1.390625 -0.375q0.828125 0 1.375 0.28125q0.5625 0.28125 0.90625 0.75q0.359375 0.46875 0.5 1.09375q0.15625 0.609375 0.15625 1.484375l0 5.0z" fill-rule="nonzero"/></g></svg>